<svg width="20" height="20" viewBox="0 0 20 20" fill="none" xmlns="http://www.w3.org/2000/svg">
<path d="M0.75 1.17578L2.83 1.5316L3.79301 12.8715C3.87001 13.7976 4.65301 14.5082 5.59301 14.5053H16.502C17.399 14.5072 18.16 13.8549 18.287 12.9772L19.236 6.49532C19.342 5.77083 18.833 5.09872 18.101 4.99395C18.037 4.98505 3.164 4.98011 3.164 4.98011" stroke="#363853" stroke-width="1.5" stroke-linecap="round" stroke-linejoin="round"/>
<path d="M12.125 8.63337H14.8979" stroke="#363853" stroke-width="1.5" stroke-linecap="round" stroke-linejoin="round"/>
<path fill-rule="evenodd" clip-rule="evenodd" d="M5.1543 17.9316C5.45527 17.9316 5.69824 18.1729 5.69824 18.4696C5.69824 18.7673 5.45527 19.0085 5.1543 19.0085C4.85333 19.0085 4.61035 18.7673 4.61035 18.4696C4.61035 18.1729 4.85333 17.9316 5.1543 17.9316Z" stroke="#363853" stroke-width="1.5" stroke-linecap="round" stroke-linejoin="round"/>
<path fill-rule="evenodd" clip-rule="evenodd" d="M16.4346 17.9316C16.7356 17.9316 16.9796 18.1729 16.9796 18.4696C16.9796 18.7673 16.7356 19.0085 16.4346 19.0085C16.1336 19.0085 15.8906 18.7673 15.8906 18.4696C15.8906 18.1729 16.1336 17.9316 16.4346 17.9316Z" stroke="#363853" stroke-width="1.5" stroke-linecap="round" stroke-linejoin="round"/>
</svg>
