<svg width="198" height="32" viewBox="0 0 198 32" fill="none" xmlns="http://www.w3.org/2000/svg">
<g clip-path="url(#clip0_118_65)">
<path d="M9.593 25.33C7.547 25.33 5.831 25.033 4.445 24.439C3.081 23.823 2.036 23.031 1.31 22.063C0.606 21.073 0.232 20.039 0.188 18.961C0.188 18.763 0.254 18.598 0.386 18.466C0.518 18.334 0.683 18.268 0.881 18.268H3.818C4.104 18.268 4.313 18.334 4.445 18.466C4.599 18.576 4.731 18.719 4.841 18.895C4.973 19.313 5.226 19.731 5.6 20.149C5.974 20.545 6.48 20.875 7.118 21.139C7.778 21.403 8.603 21.535 9.593 21.535C11.177 21.535 12.354 21.271 13.124 20.743C13.916 20.215 14.312 19.5 14.312 18.598C14.312 17.96 14.103 17.454 13.685 17.08C13.267 16.684 12.618 16.332 11.738 16.024C10.88 15.694 9.736 15.353 8.306 15.001C6.656 14.605 5.27 14.132 4.148 13.582C3.048 13.01 2.212 12.295 1.64 11.437C1.09 10.579 0.815 9.49 0.815 8.17C0.815 6.894 1.156 5.761 1.838 4.771C2.542 3.781 3.532 3 4.808 2.428C6.106 1.856 7.646 1.57 9.428 1.57C10.858 1.57 12.123 1.768 13.223 2.164C14.323 2.538 15.236 3.044 15.962 3.682C16.688 4.298 17.238 4.969 17.612 5.695C18.008 6.399 18.217 7.092 18.239 7.774C18.239 7.95 18.173 8.115 18.041 8.269C17.931 8.401 17.766 8.467 17.546 8.467H14.477C14.301 8.467 14.125 8.423 13.949 8.335C13.773 8.247 13.63 8.082 13.52 7.84C13.388 7.158 12.959 6.575 12.233 6.091C11.507 5.607 10.572 5.365 9.428 5.365C8.24 5.365 7.283 5.585 6.557 6.025C5.831 6.465 5.468 7.147 5.468 8.071C5.468 8.687 5.644 9.204 5.996 9.622C6.37 10.018 6.953 10.37 7.745 10.678C8.559 10.986 9.626 11.316 10.946 11.668C12.816 12.086 14.345 12.57 15.533 13.12C16.721 13.67 17.59 14.374 18.14 15.232C18.69 16.068 18.965 17.135 18.965 18.433C18.965 19.885 18.569 21.128 17.777 22.162C17.007 23.174 15.918 23.955 14.51 24.505C13.102 25.055 11.463 25.33 9.593 25.33ZM24.5619 25C24.3419 25 24.1549 24.923 24.0009 24.769C23.8469 24.615 23.7699 24.428 23.7699 24.208V8.632C23.7699 8.412 23.8469 8.225 24.0009 8.071C24.1549 7.917 24.3419 7.84 24.5619 7.84H27.3009C27.5429 7.84 27.7299 7.917 27.8619 8.071C28.0159 8.225 28.0929 8.412 28.0929 8.632V24.208C28.0929 24.428 28.0159 24.615 27.8619 24.769C27.7299 24.923 27.5429 25 27.3009 25H24.5619ZM24.4299 5.002C24.1879 5.002 23.9899 4.936 23.8359 4.804C23.7039 4.65 23.6379 4.452 23.6379 4.21V1.834C23.6379 1.614 23.7039 1.427 23.8359 1.273C23.9899 1.119 24.1879 1.042 24.4299 1.042H27.4329C27.6749 1.042 27.8729 1.119 28.0269 1.273C28.1809 1.427 28.2579 1.614 28.2579 1.834V4.21C28.2579 4.452 28.1809 4.65 28.0269 4.804C27.8729 4.936 27.6749 5.002 27.4329 5.002H24.4299ZM35.3588 25C35.1388 25 34.9518 24.923 34.7978 24.769C34.6438 24.615 34.5668 24.428 34.5668 24.208V8.632C34.5668 8.412 34.6438 8.225 34.7978 8.071C34.9518 7.917 35.1388 7.84 35.3588 7.84H37.9328C38.1528 7.84 38.3398 7.917 38.4938 8.071C38.6478 8.225 38.7248 8.412 38.7248 8.632V9.754C39.1868 9.138 39.8028 8.621 40.5728 8.203C41.3648 7.763 42.2998 7.532 43.3778 7.51C45.8858 7.466 47.6348 8.445 48.6248 10.447C49.1308 9.567 49.8568 8.863 50.8028 8.335C51.7708 7.785 52.8378 7.51 54.0038 7.51C55.1478 7.51 56.1818 7.774 57.1058 8.302C58.0518 8.83 58.7888 9.633 59.3168 10.711C59.8668 11.767 60.1418 13.109 60.1418 14.737V24.208C60.1418 24.428 60.0648 24.615 59.9108 24.769C59.7568 24.923 59.5698 25 59.3498 25H56.6438C56.4238 25 56.2368 24.923 56.0828 24.769C55.9288 24.615 55.8518 24.428 55.8518 24.208V15.001C55.8518 14.011 55.7088 13.23 55.4228 12.658C55.1368 12.064 54.7518 11.646 54.2678 11.404C53.7838 11.162 53.2448 11.041 52.6508 11.041C52.1668 11.041 51.6828 11.162 51.1988 11.404C50.7148 11.646 50.3188 12.064 50.0108 12.658C49.7028 13.23 49.5488 14.011 49.5488 15.001V24.208C49.5488 24.428 49.4718 24.615 49.3178 24.769C49.1638 24.923 48.9768 25 48.7568 25H46.0508C45.8088 25 45.6108 24.923 45.4568 24.769C45.3248 24.615 45.2588 24.428 45.2588 24.208V15.001C45.2588 14.011 45.1048 13.23 44.7968 12.658C44.4888 12.064 44.0928 11.646 43.6088 11.404C43.1248 11.162 42.6078 11.041 42.0578 11.041C41.5518 11.041 41.0568 11.173 40.5728 11.437C40.0888 11.679 39.6928 12.086 39.3848 12.658C39.0768 13.23 38.9228 14.011 38.9228 15.001V24.208C38.9228 24.428 38.8458 24.615 38.6918 24.769C38.5378 24.923 38.3508 25 38.1308 25H35.3588ZM66.5881 31.27C66.3681 31.27 66.1811 31.193 66.0271 31.039C65.8731 30.885 65.7961 30.698 65.7961 30.478V8.632C65.7961 8.412 65.8731 8.225 66.0271 8.071C66.1811 7.917 66.3681 7.84 66.5881 7.84H69.1951C69.4371 7.84 69.6241 7.917 69.7561 8.071C69.9101 8.225 69.9871 8.412 69.9871 8.632V9.952C70.5151 9.248 71.2081 8.665 72.0661 8.203C72.9241 7.741 73.9911 7.51 75.2671 7.51C76.4331 7.51 77.4451 7.697 78.3031 8.071C79.1611 8.445 79.8761 8.984 80.4481 9.688C81.0201 10.37 81.4601 11.184 81.7681 12.13C82.0761 13.076 82.2521 14.121 82.2961 15.265C82.3181 15.639 82.3291 16.024 82.3291 16.42C82.3291 16.816 82.3181 17.212 82.2961 17.608C82.2741 18.708 82.1091 19.731 81.8011 20.677C81.4931 21.601 81.0421 22.415 80.4481 23.119C79.8761 23.801 79.1611 24.34 78.3031 24.736C77.4451 25.132 76.4331 25.33 75.2671 25.33C74.0791 25.33 73.0671 25.121 72.2311 24.703C71.3951 24.263 70.7131 23.691 70.1851 22.987V30.478C70.1851 30.698 70.1081 30.885 69.9541 31.039C69.8221 31.193 69.6351 31.27 69.3931 31.27H66.5881ZM74.0461 21.799C74.9921 21.799 75.7291 21.601 76.2571 21.205C76.7851 20.787 77.1591 20.248 77.3791 19.588C77.6211 18.928 77.7641 18.202 77.8081 17.41C77.8521 16.75 77.8521 16.09 77.8081 15.43C77.7641 14.638 77.6211 13.912 77.3791 13.252C77.1591 12.592 76.7851 12.064 76.2571 11.668C75.7291 11.25 74.9921 11.041 74.0461 11.041C73.1441 11.041 72.4071 11.25 71.8351 11.668C71.2851 12.086 70.8781 12.625 70.6141 13.285C70.3721 13.923 70.2291 14.583 70.1851 15.265C70.1631 15.661 70.1521 16.079 70.1521 16.519C70.1521 16.959 70.1631 17.388 70.1851 17.806C70.2071 18.466 70.3611 19.104 70.6471 19.72C70.9331 20.314 71.3511 20.809 71.9011 21.205C72.4511 21.601 73.1661 21.799 74.0461 21.799ZM88.2776 25C88.0576 25 87.8706 24.923 87.7166 24.769C87.5626 24.615 87.4856 24.428 87.4856 24.208V2.362C87.4856 2.142 87.5626 1.955 87.7166 1.801C87.8706 1.647 88.0576 1.57 88.2776 1.57H91.0166C91.2366 1.57 91.4236 1.647 91.5776 1.801C91.7316 1.955 91.8086 2.142 91.8086 2.362V24.208C91.8086 24.428 91.7316 24.615 91.5776 24.769C91.4236 24.923 91.2366 25 91.0166 25H88.2776ZM104.997 25.33C102.555 25.33 100.619 24.626 99.189 23.218C97.759 21.81 96.989 19.808 96.879 17.212C96.857 16.992 96.846 16.717 96.846 16.387C96.846 16.035 96.857 15.76 96.879 15.562C96.967 13.912 97.341 12.482 98.001 11.272C98.683 10.062 99.618 9.138 100.806 8.5C101.994 7.84 103.391 7.51 104.997 7.51C106.779 7.51 108.275 7.884 109.485 8.632C110.695 9.358 111.608 10.381 112.224 11.701C112.84 12.999 113.148 14.506 113.148 16.222V16.915C113.148 17.135 113.071 17.322 112.917 17.476C112.763 17.63 112.565 17.707 112.323 17.707H101.367C101.367 17.707 101.367 17.74 101.367 17.806C101.367 17.872 101.367 17.927 101.367 17.971C101.389 18.741 101.532 19.456 101.796 20.116C102.082 20.754 102.489 21.271 103.017 21.667C103.567 22.063 104.216 22.261 104.964 22.261C105.58 22.261 106.097 22.173 106.515 21.997C106.933 21.799 107.274 21.579 107.538 21.337C107.802 21.095 107.989 20.897 108.099 20.743C108.297 20.479 108.451 20.325 108.561 20.281C108.693 20.215 108.88 20.182 109.122 20.182H111.96C112.18 20.182 112.356 20.248 112.488 20.38C112.642 20.512 112.708 20.677 112.686 20.875C112.664 21.227 112.477 21.656 112.125 22.162C111.795 22.668 111.311 23.163 110.673 23.647C110.035 24.131 109.232 24.538 108.264 24.868C107.318 25.176 106.229 25.33 104.997 25.33ZM101.367 14.935H108.66V14.836C108.66 13.978 108.517 13.23 108.231 12.592C107.945 11.954 107.527 11.448 106.977 11.074C106.427 10.7 105.767 10.513 104.997 10.513C104.227 10.513 103.567 10.7 103.017 11.074C102.467 11.448 102.049 11.954 101.763 12.592C101.499 13.23 101.367 13.978 101.367 14.836V14.935Z" fill="#FF6838"/>
<path d="M119.258 25C119.038 25 118.851 24.923 118.697 24.769C118.543 24.615 118.466 24.428 118.466 24.208V2.725C118.466 2.483 118.543 2.285 118.697 2.131C118.851 1.977 119.038 1.9 119.258 1.9H133.58C133.822 1.9 134.02 1.977 134.174 2.131C134.328 2.285 134.405 2.483 134.405 2.725V5.035C134.405 5.277 134.328 5.475 134.174 5.629C134.02 5.761 133.822 5.827 133.58 5.827H122.987V12.097H132.92C133.162 12.097 133.36 12.174 133.514 12.328C133.668 12.482 133.745 12.68 133.745 12.922V15.232C133.745 15.452 133.668 15.639 133.514 15.793C133.36 15.947 133.162 16.024 132.92 16.024H122.987V24.208C122.987 24.428 122.91 24.615 122.756 24.769C122.602 24.923 122.404 25 122.162 25H119.258ZM146.576 25.33C144.816 25.33 143.331 25.022 142.121 24.406C140.933 23.79 140.02 22.921 139.382 21.799C138.766 20.677 138.414 19.368 138.326 17.872C138.304 17.476 138.293 16.992 138.293 16.42C138.293 15.848 138.304 15.364 138.326 14.968C138.414 13.45 138.777 12.141 139.415 11.041C140.075 9.919 140.999 9.05 142.187 8.434C143.397 7.818 144.86 7.51 146.576 7.51C148.292 7.51 149.744 7.818 150.932 8.434C152.142 9.05 153.066 9.919 153.704 11.041C154.364 12.141 154.738 13.45 154.826 14.968C154.848 15.364 154.859 15.848 154.859 16.42C154.859 16.992 154.848 17.476 154.826 17.872C154.738 19.368 154.375 20.677 153.737 21.799C153.121 22.921 152.208 23.79 150.998 24.406C149.81 25.022 148.336 25.33 146.576 25.33ZM146.576 22.063C147.742 22.063 148.644 21.7 149.282 20.974C149.92 20.226 150.272 19.137 150.338 17.707C150.36 17.377 150.371 16.948 150.371 16.42C150.371 15.892 150.36 15.463 150.338 15.133C150.272 13.725 149.92 12.647 149.282 11.899C148.644 11.151 147.742 10.777 146.576 10.777C145.41 10.777 144.508 11.151 143.87 11.899C143.232 12.647 142.88 13.725 142.814 15.133C142.792 15.463 142.781 15.892 142.781 16.42C142.781 16.948 142.792 17.377 142.814 17.707C142.88 19.137 143.232 20.226 143.87 20.974C144.508 21.7 145.41 22.063 146.576 22.063ZM167.524 25.33C165.764 25.33 164.279 25.022 163.069 24.406C161.881 23.79 160.968 22.921 160.33 21.799C159.714 20.677 159.362 19.368 159.274 17.872C159.252 17.476 159.241 16.992 159.241 16.42C159.241 15.848 159.252 15.364 159.274 14.968C159.362 13.45 159.725 12.141 160.363 11.041C161.023 9.919 161.947 9.05 163.135 8.434C164.345 7.818 165.808 7.51 167.524 7.51C169.24 7.51 170.692 7.818 171.88 8.434C173.09 9.05 174.014 9.919 174.652 11.041C175.312 12.141 175.686 13.45 175.774 14.968C175.796 15.364 175.807 15.848 175.807 16.42C175.807 16.992 175.796 17.476 175.774 17.872C175.686 19.368 175.323 20.677 174.685 21.799C174.069 22.921 173.156 23.79 171.946 24.406C170.758 25.022 169.284 25.33 167.524 25.33ZM167.524 22.063C168.69 22.063 169.592 21.7 170.23 20.974C170.868 20.226 171.22 19.137 171.286 17.707C171.308 17.377 171.319 16.948 171.319 16.42C171.319 15.892 171.308 15.463 171.286 15.133C171.22 13.725 170.868 12.647 170.23 11.899C169.592 11.151 168.69 10.777 167.524 10.777C166.358 10.777 165.456 11.151 164.818 11.899C164.18 12.647 163.828 13.725 163.762 15.133C163.74 15.463 163.729 15.892 163.729 16.42C163.729 16.948 163.74 17.377 163.762 17.707C163.828 19.137 164.18 20.226 164.818 20.974C165.456 21.7 166.358 22.063 167.524 22.063ZM187.252 25.33C186.108 25.33 185.096 25.143 184.216 24.769C183.358 24.373 182.643 23.823 182.071 23.119C181.499 22.415 181.059 21.59 180.751 20.644C180.443 19.676 180.267 18.62 180.223 17.476C180.201 17.08 180.19 16.728 180.19 16.42C180.19 16.09 180.201 15.727 180.223 15.331C180.267 14.231 180.432 13.208 180.718 12.262C181.026 11.316 181.466 10.491 182.038 9.787C182.632 9.061 183.358 8.5 184.216 8.104C185.096 7.708 186.108 7.51 187.252 7.51C188.44 7.51 189.441 7.719 190.255 8.137C191.091 8.533 191.784 9.05 192.334 9.688V2.362C192.334 2.142 192.4 1.955 192.532 1.801C192.686 1.647 192.884 1.57 193.126 1.57H195.931C196.151 1.57 196.338 1.647 196.492 1.801C196.646 1.955 196.723 2.142 196.723 2.362V24.208C196.723 24.428 196.646 24.615 196.492 24.769C196.338 24.923 196.151 25 195.931 25H193.324C193.082 25 192.884 24.923 192.73 24.769C192.598 24.615 192.532 24.428 192.532 24.208V22.987C191.982 23.669 191.278 24.23 190.42 24.67C189.584 25.11 188.528 25.33 187.252 25.33ZM188.473 21.799C189.397 21.799 190.134 21.59 190.684 21.172C191.234 20.754 191.641 20.226 191.905 19.588C192.169 18.928 192.312 18.257 192.334 17.575C192.356 17.179 192.367 16.761 192.367 16.321C192.367 15.859 192.356 15.43 192.334 15.034C192.312 14.374 192.158 13.747 191.872 13.153C191.586 12.537 191.168 12.031 190.618 11.635C190.068 11.239 189.353 11.041 188.473 11.041C187.549 11.041 186.812 11.25 186.262 11.668C185.734 12.064 185.349 12.592 185.107 13.252C184.865 13.912 184.722 14.638 184.678 15.43C184.656 16.09 184.656 16.75 184.678 17.41C184.722 18.202 184.865 18.928 185.107 19.588C185.349 20.248 185.734 20.787 186.262 21.205C186.812 21.601 187.549 21.799 188.473 21.799Z" fill="#363853"/>
</g>
<defs>
<clipPath id="clip0_118_65">
<rect width="198" height="32" fill="white"/>
</clipPath>
</defs>
</svg>
